<svg xmlns="http://www.w3.org/2000/svg" viewBox="0 0 100 100">
  <rect width="100" height="100" rx="24" fill="#2563eb" />
  <svg x="20" y="20" width="60" height="60" viewBox="0 0 24 24" fill="none" stroke="#ffffff" stroke-width="2" stroke-linecap="round" stroke-linejoin="round">
    <path d="M21.42 10.922a2 2 0 0 0-.019-3.838L12.83 4.3a2 2 0 0 0-1.66 0l-8.57 2.78a2 2 0 0 0-.019 3.838l8.53 2.84a2 2 0 0 0 1.56 0l8.75-2.838Z"/>
    <path d="M14 14.5a2 2 0 0 1-4 0v-2.3"/>
    <path d="M22 10v6"/>
    <path d="M6 12.5V16a6 3 0 0 0 12 0v-3.5"/>
  </svg>
</svg>